<mxfile host="app.diagrams.net" modified="2020-11-24T20:32:52.761Z" agent="5.0 (X11)" etag="GQo_tDoji4YYdWPX6ib7" version="13.10.1" type="github">
  <diagram name="Page-1" id="74e2e168-ea6b-b213-b513-2b3c1d86103e">
    <mxGraphModel dx="2219" dy="1042" grid="1" gridSize="10" guides="1" tooltips="1" connect="1" arrows="1" fold="1" page="1" pageScale="1" pageWidth="1100" pageHeight="850" background="#ffffff" math="0" shadow="0">
      <root>
        <mxCell id="0" />
        <mxCell id="1" parent="0" />
        <mxCell id="77e6c97f196da883-1" value="JOURNEY: Subscribed user makes an order &amp;amp; picks the meal" style="swimlane;html=1;childLayout=stackLayout;startSize=20;rounded=0;shadow=0;labelBackgroundColor=none;strokeWidth=1;fontFamily=Verdana;fontSize=8;align=center;" parent="1" vertex="1">
          <mxGeometry x="70" y="40" width="1900" height="640" as="geometry">
            <mxRectangle x="70" y="40" width="70" height="20" as="alternateBounds" />
          </mxGeometry>
        </mxCell>
        <mxCell id="UEHIZDbfHYOTMN5uZTxE-16" value="&amp;nbsp;" style="endArrow=classic;html=1;exitX=1.001;exitY=0.863;exitDx=0;exitDy=0;exitPerimeter=0;entryX=0.012;entryY=0.661;entryDx=0;entryDy=0;entryPerimeter=0;" parent="77e6c97f196da883-1" source="QJ3G4-R3qcjC6Z-IzL42-29" target="UEHIZDbfHYOTMN5uZTxE-15" edge="1">
          <mxGeometry width="50" height="50" relative="1" as="geometry">
            <mxPoint x="800" y="390" as="sourcePoint" />
            <mxPoint x="850" y="340" as="targetPoint" />
          </mxGeometry>
        </mxCell>
        <mxCell id="77e6c97f196da883-2" value="&lt;div&gt;Actors&lt;/div&gt;" style="swimlane;html=1;startSize=20;" parent="77e6c97f196da883-1" vertex="1">
          <mxGeometry y="20" width="160" height="620" as="geometry" />
        </mxCell>
        <mxCell id="QJ3G4-R3qcjC6Z-IzL42-1" value="&lt;div&gt;Subscriber&lt;/div&gt;" style="shape=umlActor;verticalLabelPosition=bottom;verticalAlign=top;html=1;outlineConnect=0;" parent="77e6c97f196da883-2" vertex="1">
          <mxGeometry x="65" y="180" width="30" height="60" as="geometry" />
        </mxCell>
        <mxCell id="77e6c97f196da883-3" value="&lt;div&gt;Menu Catalog&lt;/div&gt;" style="swimlane;html=1;startSize=20;" parent="77e6c97f196da883-1" vertex="1">
          <mxGeometry x="160" y="20" width="160" height="620" as="geometry" />
        </mxCell>
        <mxCell id="QJ3G4-R3qcjC6Z-IzL42-19" value="Selects a Meal" style="ellipse;whiteSpace=wrap;html=1;aspect=fixed;" parent="77e6c97f196da883-3" vertex="1">
          <mxGeometry x="40" y="170.0000000000001" width="80" height="80" as="geometry" />
        </mxCell>
        <mxCell id="77e6c97f196da883-4" value="Point of Sale" style="swimlane;html=1;startSize=20;" parent="77e6c97f196da883-1" vertex="1">
          <mxGeometry x="320" y="20" width="160" height="620" as="geometry">
            <mxRectangle x="320" y="20" width="30" height="730" as="alternateBounds" />
          </mxGeometry>
        </mxCell>
        <mxCell id="UEHIZDbfHYOTMN5uZTxE-2" value="Has Coupon?" style="rhombus;whiteSpace=wrap;html=1;" parent="77e6c97f196da883-4" vertex="1">
          <mxGeometry x="35" y="163" width="90" height="90" as="geometry" />
        </mxCell>
        <mxCell id="77e6c97f196da883-5" value="&lt;div&gt;Ordering System&lt;/div&gt;" style="swimlane;html=1;startSize=20;" parent="77e6c97f196da883-1" vertex="1">
          <mxGeometry x="480" y="20" width="170" height="620" as="geometry" />
        </mxCell>
        <mxCell id="QJ3G4-R3qcjC6Z-IzL42-29" value="&lt;div&gt;Make Order&lt;/div&gt;" style="whiteSpace=wrap;html=1;aspect=fixed;" parent="77e6c97f196da883-5" vertex="1">
          <mxGeometry x="50" y="173" width="80" height="80" as="geometry" />
        </mxCell>
        <mxCell id="QJ3G4-R3qcjC6Z-IzL42-30" value="Access Code" style="whiteSpace=wrap;html=1;aspect=fixed;" parent="77e6c97f196da883-5" vertex="1">
          <mxGeometry x="50" y="320" width="80" height="80" as="geometry" />
        </mxCell>
        <mxCell id="QJ3G4-R3qcjC6Z-IzL42-31" value="Generates" style="endArrow=classic;html=1;exitX=0.5;exitY=1;exitDx=0;exitDy=0;entryX=0.5;entryY=0;entryDx=0;entryDy=0;" parent="77e6c97f196da883-5" source="QJ3G4-R3qcjC6Z-IzL42-29" target="QJ3G4-R3qcjC6Z-IzL42-30" edge="1">
          <mxGeometry width="50" height="50" relative="1" as="geometry">
            <mxPoint x="100" y="330" as="sourcePoint" />
            <mxPoint x="150" y="280" as="targetPoint" />
          </mxGeometry>
        </mxCell>
        <mxCell id="QJ3G4-R3qcjC6Z-IzL42-15" value="Browses" style="endArrow=classic;html=1;exitX=0.5;exitY=0.5;exitDx=0;exitDy=0;exitPerimeter=0;" parent="77e6c97f196da883-1" source="QJ3G4-R3qcjC6Z-IzL42-1" target="QJ3G4-R3qcjC6Z-IzL42-19" edge="1">
          <mxGeometry x="0.1667" width="50" height="50" relative="1" as="geometry">
            <mxPoint x="530" y="310" as="sourcePoint" />
            <mxPoint x="205" y="230.0000000000001" as="targetPoint" />
            <Array as="points" />
            <mxPoint as="offset" />
          </mxGeometry>
        </mxCell>
        <mxCell id="77e6c97f196da883-6" value="Loyalty / Promotion System" style="swimlane;html=1;startSize=20;" parent="77e6c97f196da883-1" vertex="1">
          <mxGeometry x="650" y="20" width="200" height="620" as="geometry" />
        </mxCell>
        <mxCell id="QJ3G4-R3qcjC6Z-IzL42-40" value="&lt;div&gt;Discount&lt;/div&gt;" style="whiteSpace=wrap;html=1;" parent="77e6c97f196da883-6" vertex="1">
          <mxGeometry x="45" y="60" width="90" height="60" as="geometry" />
        </mxCell>
        <mxCell id="77e6c97f196da883-7" value="Ghost Kitchen" style="swimlane;html=1;startSize=20;" parent="77e6c97f196da883-1" vertex="1">
          <mxGeometry x="850" y="20" width="200" height="620" as="geometry" />
        </mxCell>
        <mxCell id="UEHIZDbfHYOTMN5uZTxE-9" value="Make Batch of Meals" style="whiteSpace=wrap;html=1;aspect=fixed;" parent="77e6c97f196da883-7" vertex="1">
          <mxGeometry x="50" y="190" width="80" height="80" as="geometry" />
        </mxCell>
        <mxCell id="QJ3G4-R3qcjC6Z-IzL42-25" value="Scheduling System" style="swimlane;html=1;startSize=20;" parent="77e6c97f196da883-1" vertex="1">
          <mxGeometry x="1050" y="20" width="160" height="620" as="geometry" />
        </mxCell>
        <mxCell id="UEHIZDbfHYOTMN5uZTxE-15" value="Pick &amp;amp; Deliver" style="whiteSpace=wrap;html=1;aspect=fixed;" parent="QJ3G4-R3qcjC6Z-IzL42-25" vertex="1">
          <mxGeometry x="40" y="190" width="80" height="80" as="geometry" />
        </mxCell>
        <mxCell id="QJ3G4-R3qcjC6Z-IzL42-41" value="Yes" style="edgeStyle=orthogonalEdgeStyle;rounded=0;orthogonalLoop=1;jettySize=auto;html=1;exitX=0.5;exitY=0;exitDx=0;exitDy=0;" parent="77e6c97f196da883-1" source="UEHIZDbfHYOTMN5uZTxE-2" target="QJ3G4-R3qcjC6Z-IzL42-40" edge="1">
          <mxGeometry x="-0.9293" relative="1" as="geometry">
            <Array as="points">
              <mxPoint x="400" y="110" />
            </Array>
            <mxPoint x="400" y="200" as="sourcePoint" />
            <mxPoint as="offset" />
          </mxGeometry>
        </mxCell>
        <mxCell id="QJ3G4-R3qcjC6Z-IzL42-44" value="apply discount" style="endArrow=classic;html=1;entryX=1;entryY=0.5;entryDx=0;entryDy=0;exitX=0.5;exitY=1;exitDx=0;exitDy=0;" parent="77e6c97f196da883-1" source="QJ3G4-R3qcjC6Z-IzL42-40" target="QJ3G4-R3qcjC6Z-IzL42-29" edge="1">
          <mxGeometry width="50" height="50" relative="1" as="geometry">
            <mxPoint x="730" y="190" as="sourcePoint" />
            <mxPoint x="780" y="140" as="targetPoint" />
            <Array as="points">
              <mxPoint x="740" y="233" />
            </Array>
          </mxGeometry>
        </mxCell>
        <mxCell id="UEHIZDbfHYOTMN5uZTxE-1" value="" style="endArrow=classic;html=1;" parent="77e6c97f196da883-1" source="QJ3G4-R3qcjC6Z-IzL42-19" target="UEHIZDbfHYOTMN5uZTxE-2" edge="1">
          <mxGeometry width="50" height="50" relative="1" as="geometry">
            <mxPoint x="670" y="360" as="sourcePoint" />
            <mxPoint x="360" y="230" as="targetPoint" />
          </mxGeometry>
        </mxCell>
        <mxCell id="UEHIZDbfHYOTMN5uZTxE-4" value="No" style="edgeStyle=orthogonalEdgeStyle;rounded=0;orthogonalLoop=1;jettySize=auto;html=1;" parent="77e6c97f196da883-1" source="UEHIZDbfHYOTMN5uZTxE-2" target="QJ3G4-R3qcjC6Z-IzL42-29" edge="1">
          <mxGeometry x="-0.6471" relative="1" as="geometry">
            <Array as="points">
              <mxPoint x="488" y="228" />
              <mxPoint x="488" y="228" />
            </Array>
            <mxPoint as="offset" />
          </mxGeometry>
        </mxCell>
        <mxCell id="UEHIZDbfHYOTMN5uZTxE-13" value="order preparation request" style="endArrow=classic;html=1;exitX=1.004;exitY=0.701;exitDx=0;exitDy=0;entryX=0;entryY=0.5;entryDx=0;entryDy=0;exitPerimeter=0;" parent="77e6c97f196da883-1" source="QJ3G4-R3qcjC6Z-IzL42-29" target="UEHIZDbfHYOTMN5uZTxE-9" edge="1">
          <mxGeometry width="50" height="50" relative="1" as="geometry">
            <mxPoint x="850" y="270" as="sourcePoint" />
            <mxPoint x="896" y="250" as="targetPoint" />
          </mxGeometry>
        </mxCell>
        <mxCell id="UEHIZDbfHYOTMN5uZTxE-22" value="" style="endArrow=classic;html=1;exitX=1;exitY=0.5;exitDx=0;exitDy=0;entryX=0;entryY=0.5;entryDx=0;entryDy=0;" parent="77e6c97f196da883-1" source="QJ3G4-R3qcjC6Z-IzL42-30" target="UEHIZDbfHYOTMN5uZTxE-21" edge="1">
          <mxGeometry width="50" height="50" relative="1" as="geometry">
            <mxPoint x="940" y="230" as="sourcePoint" />
            <mxPoint x="990" y="180" as="targetPoint" />
          </mxGeometry>
        </mxCell>
        <mxCell id="QJ3G4-R3qcjC6Z-IzL42-34" value="Smart Fridge" style="swimlane;html=1;startSize=20;" parent="77e6c97f196da883-1" vertex="1">
          <mxGeometry x="1210" y="20" width="190" height="620" as="geometry" />
        </mxCell>
        <mxCell id="UEHIZDbfHYOTMN5uZTxE-20" value="Provide Meal" style="ellipse;whiteSpace=wrap;html=1;aspect=fixed;" parent="QJ3G4-R3qcjC6Z-IzL42-34" vertex="1">
          <mxGeometry x="70" y="460" width="80" height="80" as="geometry" />
        </mxCell>
        <mxCell id="UEHIZDbfHYOTMN5uZTxE-21" value="Is Code Valid?" style="rhombus;whiteSpace=wrap;html=1;" parent="QJ3G4-R3qcjC6Z-IzL42-34" vertex="1">
          <mxGeometry x="60" y="310" width="100" height="100" as="geometry" />
        </mxCell>
        <mxCell id="UEHIZDbfHYOTMN5uZTxE-23" value="Yes" style="endArrow=classic;html=1;entryX=0.5;entryY=0;entryDx=0;entryDy=0;" parent="QJ3G4-R3qcjC6Z-IzL42-34" target="UEHIZDbfHYOTMN5uZTxE-20" edge="1">
          <mxGeometry x="-0.2" width="50" height="50" relative="1" as="geometry">
            <mxPoint x="110" y="410" as="sourcePoint" />
            <mxPoint x="110" y="450" as="targetPoint" />
            <Array as="points">
              <mxPoint x="110" y="420" />
            </Array>
            <mxPoint as="offset" />
          </mxGeometry>
        </mxCell>
        <mxCell id="UEHIZDbfHYOTMN5uZTxE-24" value="No (generate new code request)" style="endArrow=classic;html=1;exitX=0.5;exitY=0;exitDx=0;exitDy=0;entryX=1;entryY=1;entryDx=0;entryDy=0;" parent="77e6c97f196da883-1" edge="1">
          <mxGeometry width="50" height="50" relative="1" as="geometry">
            <mxPoint x="1320" y="330" as="sourcePoint" />
            <mxPoint x="610" y="273" as="targetPoint" />
            <Array as="points">
              <mxPoint x="610" y="330" />
            </Array>
          </mxGeometry>
        </mxCell>
        <mxCell id="UEHIZDbfHYOTMN5uZTxE-33" value="deliver food to the fridge" style="endArrow=classic;html=1;exitX=0.5;exitY=1;exitDx=0;exitDy=0;entryX=0.025;entryY=0.588;entryDx=0;entryDy=0;entryPerimeter=0;" parent="77e6c97f196da883-1" source="UEHIZDbfHYOTMN5uZTxE-15" target="UEHIZDbfHYOTMN5uZTxE-20" edge="1">
          <mxGeometry width="50" height="50" relative="1" as="geometry">
            <mxPoint x="1020" y="360" as="sourcePoint" />
            <mxPoint x="1070" y="310" as="targetPoint" />
            <Array as="points">
              <mxPoint x="1130" y="527" />
            </Array>
          </mxGeometry>
        </mxCell>
        <mxCell id="UEHIZDbfHYOTMN5uZTxE-34" value="pick up the meal" style="endArrow=classic;html=1;entryX=0.5;entryY=1;entryDx=0;entryDy=0;exitX=0.5;exitY=0.5;exitDx=0;exitDy=0;exitPerimeter=0;" parent="77e6c97f196da883-1" source="QJ3G4-R3qcjC6Z-IzL42-1" target="UEHIZDbfHYOTMN5uZTxE-20" edge="1">
          <mxGeometry x="0.2229" width="50" height="50" relative="1" as="geometry">
            <mxPoint x="800" y="380" as="sourcePoint" />
            <mxPoint x="850" y="330" as="targetPoint" />
            <Array as="points">
              <mxPoint x="80" y="560" />
              <mxPoint x="700" y="560" />
            </Array>
            <mxPoint as="offset" />
          </mxGeometry>
        </mxCell>
        <mxCell id="3VbTc0IpQ69qfJEpZfjk-1" value="&amp;nbsp;" style="endArrow=classic;html=1;entryX=0.005;entryY=0.721;entryDx=0;entryDy=0;entryPerimeter=0;" parent="77e6c97f196da883-1" source="UEHIZDbfHYOTMN5uZTxE-20" target="QJ3G4-R3qcjC6Z-IzL42-29" edge="1">
          <mxGeometry width="50" height="50" relative="1" as="geometry">
            <mxPoint x="1320" y="560" as="sourcePoint" />
            <mxPoint x="1350" y="570" as="targetPoint" />
            <Array as="points">
              <mxPoint x="500" y="519" />
              <mxPoint x="500" y="250" />
            </Array>
          </mxGeometry>
        </mxCell>
        <mxCell id="UEHIZDbfHYOTMN5uZTxE-7" value="Feedback/Review System" style="swimlane;html=1;startSize=20;" parent="1" vertex="1">
          <mxGeometry x="1470" y="60" width="250" height="620" as="geometry" />
        </mxCell>
        <mxCell id="UEHIZDbfHYOTMN5uZTxE-29" value="Create Review" style="whiteSpace=wrap;html=1;aspect=fixed;" parent="UEHIZDbfHYOTMN5uZTxE-7" vertex="1">
          <mxGeometry x="100" y="484" width="80" height="80" as="geometry" />
        </mxCell>
        <mxCell id="UEHIZDbfHYOTMN5uZTxE-18" value="pick up meal" style="endArrow=classic;html=1;exitX=0;exitY=0.25;exitDx=0;exitDy=0;" parent="1" source="UEHIZDbfHYOTMN5uZTxE-15" edge="1">
          <mxGeometry width="50" height="50" relative="1" as="geometry">
            <mxPoint x="950" y="320" as="sourcePoint" />
            <mxPoint x="1050" y="270" as="targetPoint" />
          </mxGeometry>
        </mxCell>
        <mxCell id="UEHIZDbfHYOTMN5uZTxE-32" value="mark meal as reviewable" style="endArrow=none;dashed=1;html=1;dashPattern=1 3;strokeWidth=2;entryX=0.005;entryY=0.215;entryDx=0;entryDy=0;entryPerimeter=0;exitX=1;exitY=0.5;exitDx=0;exitDy=0;" parent="1" source="UEHIZDbfHYOTMN5uZTxE-20" target="UEHIZDbfHYOTMN5uZTxE-29" edge="1">
          <mxGeometry width="50" height="50" relative="1" as="geometry">
            <mxPoint x="1446.92" y="561.04" as="sourcePoint" />
            <mxPoint x="1487" y="480" as="targetPoint" />
          </mxGeometry>
        </mxCell>
        <mxCell id="UEHIZDbfHYOTMN5uZTxE-36" value="rate the meal" style="endArrow=none;dashed=1;html=1;dashPattern=1 3;strokeWidth=2;exitX=0.5;exitY=1;exitDx=0;exitDy=0;entryX=0.01;entryY=0.724;entryDx=0;entryDy=0;entryPerimeter=0;" parent="1" source="UEHIZDbfHYOTMN5uZTxE-20" target="UEHIZDbfHYOTMN5uZTxE-29" edge="1">
          <mxGeometry x="0.1063" y="-1" width="50" height="50" relative="1" as="geometry">
            <mxPoint x="1070" y="440" as="sourcePoint" />
            <mxPoint x="1570" y="604" as="targetPoint" />
            <mxPoint as="offset" />
          </mxGeometry>
        </mxCell>
        <mxCell id="LmnIuYkylC_gnHdmOd34-34" value="Notification System" style="swimlane;html=1;startSize=20;" vertex="1" parent="1">
          <mxGeometry x="1720" y="60" width="250" height="620" as="geometry" />
        </mxCell>
        <mxCell id="LmnIuYkylC_gnHdmOd34-36" value="Notification" style="whiteSpace=wrap;html=1;aspect=fixed;" vertex="1" parent="LmnIuYkylC_gnHdmOd34-34">
          <mxGeometry x="85" y="218" width="80" height="80" as="geometry" />
        </mxCell>
        <mxCell id="LmnIuYkylC_gnHdmOd34-37" value="" style="endArrow=classic;html=1;exitX=0.985;exitY=0.858;exitDx=0;exitDy=0;exitPerimeter=0;entryX=0;entryY=0.5;entryDx=0;entryDy=0;" edge="1" parent="1" source="UEHIZDbfHYOTMN5uZTxE-9" target="LmnIuYkylC_gnHdmOd34-36">
          <mxGeometry width="50" height="50" relative="1" as="geometry">
            <mxPoint x="1600" y="420" as="sourcePoint" />
            <mxPoint x="1790" y="319" as="targetPoint" />
          </mxGeometry>
        </mxCell>
        <mxCell id="LmnIuYkylC_gnHdmOd34-38" value="send &quot;order accepted&quot; notification" style="edgeLabel;html=1;align=center;verticalAlign=middle;resizable=0;points=[];" vertex="1" connectable="0" parent="LmnIuYkylC_gnHdmOd34-37">
          <mxGeometry x="0.1153" y="1" relative="1" as="geometry">
            <mxPoint as="offset" />
          </mxGeometry>
        </mxCell>
        <mxCell id="LmnIuYkylC_gnHdmOd34-39" value="send &quot;order ready to be picked&quot; notification" style="endArrow=classic;html=1;entryX=0.003;entryY=0.103;entryDx=0;entryDy=0;entryPerimeter=0;" edge="1" parent="1" source="UEHIZDbfHYOTMN5uZTxE-15" target="LmnIuYkylC_gnHdmOd34-36">
          <mxGeometry width="50" height="50" relative="1" as="geometry">
            <mxPoint x="1250" y="300" as="sourcePoint" />
            <mxPoint x="1300" y="250" as="targetPoint" />
          </mxGeometry>
        </mxCell>
      </root>
    </mxGraphModel>
  </diagram>
</mxfile>
